# xmcd
#
# Track frame offsets:
#	150
#	16157
#	33802
#	53325
#	72867
#	90135
#	111508
#	133781
#	153423
#	170973
#	190200
#	206380
#	222477
#	238510
#	254980
#
# Disc length: 3632 seconds
#
# Revision: 1
# Processed by: cddbd v1.5.2PL0 Copyright (c) Steve Scherf et al.
# Submitted via: audiograbber 1.83.01
#
DISCID=d00e2e0f
DTITLE=Sunfly Karaoke Kool - SFKK43
DYEAR=2010
DGENRE=Karaoke CD+G
TTITLE0=Jason Derulo - In My Head
TTITLE1=Alicia Keys - Empire State Of Mind Part 2
TTITLE2=Boys Like Girls Taylor Swif - Two Is Better Than One
TTITLE3=Robbie Williams - Morning Sun 
TTITLE4=Train - Hey Soul Sister
TTITLE5=Guy Sebastian - All To Myself
TTITLE6=John Maye - Heartbreak Warfare
TTITLE7=Miley Cyrus - When I Look At You 
TTITLE8=Justin Bieber, Ludacris - Baby
TTITLE9=Vanessa Amorosi - Mr Mysterious
TTITLE10=Amber Lawrence  - Good Girl
TTITLE11=Kasey Chambers - Like A River
TTITLE12=Adam Harvey, Troy Cassar Daley - Seven Spanish Angels
TTITLE13=Lee Kernaghan - That Old Caravan
TTITLE14=Shannon Noll - Come On Aussie Come On
EXTD=
EXTT0=
EXTT1=
EXTT2=
EXTT3=
EXTT4=
EXTT5=
EXTT6=
EXTT7=
EXTT8=
EXTT9=
EXTT10=
EXTT11=
EXTT12=
EXTT13=
EXTT14=
PLAYORDER=
